<svg xmlns="http://www.w3.org/2000/svg" viewBox="0 0 24 24" width="24" height="24">
  <title>switch.2</title>
  <path transform="matrix(0.8949484355881839, 0, 0, 0.8949484355881839, -0.6743576297850029, 19.58259045621395)" d="M8.52-8.85L19.80-8.85C22.86-8.85 25.34-11.00 25.34-14.19C25.34-17.38 22.86-19.54 19.80-19.54L8.52-19.54C5.46-19.54 2.99-17.38 2.99-14.19C2.99-11.00 5.46-8.85 8.52-8.85ZM8.52-10.62C6.48-10.62 4.83-12.06 4.83-14.19C4.83-16.32 6.48-17.77 8.52-17.77L19.80-17.77C21.84-17.77 23.50-16.32 23.50-14.19C23.50-12.06 21.84-10.62 19.80-10.62ZM8.52-11.41L11.93-11.41C13.52-11.41 14.80-12.54 14.80-14.19C14.80-15.86 13.52-16.98 11.93-16.98L8.52-16.98C6.93-16.98 5.65-15.86 5.65-14.20C5.65-12.54 6.93-11.41 8.52-11.41ZM8.00 2.59L20.32 2.59C23.10 2.59 25.34 0.64 25.34-2.23C25.34-5.10 23.10-7.04 20.32-7.04L8.00-7.04C5.23-7.04 2.99-5.10 2.99-2.23C2.99 0.64 5.23 2.59 8.00 2.59ZM16.92 0.80C15.19 0.80 13.79-0.42 13.79-2.24C13.79-4.04 15.19-5.26 16.92-5.26L20.51-5.26C22.25-5.26 23.64-4.04 23.64-2.23C23.64-0.42 22.25 0.80 20.51 0.80Z" fill="currentColor"/>
</svg>