<svg xmlns="http://www.w3.org/2000/svg" fill="none" viewBox="0 0 100 100"><g stroke-linecap="round" stroke-linejoin="round"><polygon fill="#f3a683" points="50 36 37.876 29 37.876 43"/><polygon fill="#e08b66" points="50 50 50 36 37.876 43"/><polygon fill="#f3a683" points="62.124 43 74.248 50 62.124 57"/><polygon fill="#e08b66" points="50 50 62.124 43 62.124 57"/><polygon fill="#f3a683" points="37.876 57 37.876 71 50 64"/><polygon fill="#e08b66" points="50 50 37.876 57 50 64"/><polygon fill="#f3a683" points="37.876 29 50 36 50 22"/><polygon fill="#e08b66" points="62.124 29 50 36 50 22"/><polygon fill="#f3a683" points="62.124 29 62.124 43 74.248 36"/><polygon fill="#e08b66" points="74.248 50 62.124 43 74.248 36"/><polygon fill="#f3a683" points="74.248 50 62.124 57 74.248 64"/><polygon fill="#e08b66" points="62.124 71 62.124 57 74.248 64"/><polygon fill="#f3a683" points="62.124 71 50 64 50 78"/><polygon fill="#e08b66" points="37.876 71 50 64 50 78"/><polygon fill="#f3a683" points="37.876 71 37.876 57 25.752 64"/><polygon fill="#e08b66" points="25.752 50 37.876 57 25.752 64"/><polygon fill="#f3a683" points="25.752 50 37.876 43 25.752 36"/><polygon fill="#e08b66" points="37.876 29 37.876 43 25.752 36"/></g></svg>