<svg xmlns="http://www.w3.org/2000/svg" viewBox="0 0 480 480" fill="none" aria-hidden="true">
  <g transform="translate(0 480) scale(0.1 -0.1)" fill="currentColor">
    <path d="M1170 2370 l0 -1435 324 5 325 5 102 160 c56 88 127 201 159 250 31 50 259 407 505 795 247 388 467 734 490 770 88 134 532 836 544 858 7 13 11 24 9 25 -2 1 -332 0 -734 -3 l-731 -5 127 -200 128 -200 227 -3 c192 -2 226 -5 222 -17 -4 -8 -191 -306 -418 -662 -227 -356 -458 -720 -514 -808 -270 -426 -341 -535 -347 -535 -5 0 -8 547 -8 1215 l0 1214 -205 3 -205 3 0 -1435z"/>
    <path d="M2817 1746 c-64 -101 -117 -189 -117 -195 0 -6 86 -146 191 -311 l191 -300 244 0 c134 0 244 3 244 6 0 4 -55 93 -123 198 -68 105 -208 325 -312 489 -103 163 -191 297 -194 297 -3 0 -59 -83 -124 -184z"/>
  </g>
</svg>
