<svg xmlns="http://www.w3.org/2000/svg" viewBox="0 0 24 24" width="24" height="24">
  <title>airplay.audio</title>
  <path transform="matrix(0.8333333333333334, 0, 0, 0.8333333333333334, 0.251953125, 19.216796875)" d="M2.10-8.46C2.10-5.07 3.52-2.02 5.78 0.15C5.92 0.29 6.08 0.29 6.21 0.14L6.76-0.47C6.89-0.62 6.88-0.76 6.74-0.90C4.77-2.81 3.53-5.51 3.53-8.46C3.53-14.23 8.31-19.02 14.10-19.02C19.89-19.02 24.67-14.23 24.67-8.46C24.67-5.51 23.41-2.81 21.45-0.90C21.30-0.76 21.29-0.62 21.42-0.46L21.97 0.15C22.10 0.30 22.25 0.30 22.39 0.16C24.67-2.00 26.10-5.07 26.10-8.46C26.10-15.04 20.72-20.46 14.10-20.46C7.48-20.46 2.10-15.04 2.10-8.46ZM5.51-8.46C5.51-6.09 6.48-3.97 8.04-2.41C8.18-2.26 8.36-2.27 8.48-2.41L9.02-3.01C9.18-3.16 9.15-3.32 9.01-3.47C7.73-4.75 6.95-6.52 6.95-8.46C6.95-12.38 10.17-15.61 14.10-15.61C18.02-15.61 21.25-12.38 21.25-8.46C21.25-6.52 20.45-4.73 19.17-3.47C19.03-3.32 19.01-3.16 19.16-3.01L19.71-2.40C19.84-2.26 20.00-2.25 20.14-2.40C21.71-3.96 22.69-6.09 22.69-8.46C22.69-13.17 18.83-17.05 14.10-17.05C9.36-17.05 5.51-13.17 5.51-8.46ZM8.92-8.46C8.92-7.13 9.45-5.91 10.30-4.99C10.43-4.85 10.59-4.85 10.73-5.00L11.30-5.59C11.44-5.73 11.43-5.88 11.32-6.04C10.72-6.67 10.36-7.54 10.36-8.46C10.36-10.50 12.06-12.20 14.10-12.20C16.14-12.20 17.84-10.50 17.84-8.46C17.84-7.52 17.47-6.66 16.86-6.02C16.75-5.87 16.73-5.72 16.89-5.58L17.45-4.99C17.59-4.84 17.74-4.84 17.87-4.99C18.75-5.89 19.28-7.11 19.28-8.46C19.28-11.30 16.95-13.64 14.10-13.64C11.25-13.64 8.92-11.30 8.92-8.46ZM6.93 3.14L21.25 3.14C21.80 3.14 22.01 2.57 21.67 2.18L14.59-5.82C14.32-6.13 13.85-6.13 13.58-5.82L6.52 2.18C6.16 2.58 6.38 3.14 6.93 3.14Z" fill="currentColor"/>
</svg>