<svg xmlns="http://www.w3.org/2000/svg" viewBox="0 0 24 24" width="24" height="24">
  <title>airplay.video</title>
  <path transform="matrix(0.7309064953604568, 0, 0, 0.7309064953604568, -0.18415417558886515, 18.188436830835116)" d="M27.34-19.57L6-19.57C4.14-19.57 2.99-18.42 2.99-16.56L2.99-4.75C2.99-2.88 4.14-1.73 6-1.73L9.98-1.73L11.65-3.62L6.04-3.62C5.31-3.62 4.88-4.05 4.88-4.77L4.88-16.52C4.88-17.25 5.31-17.68 6.04-17.68L27.30-17.68C28.03-17.68 28.46-17.25 28.46-16.52L28.46-4.77C28.46-4.05 28.03-3.62 27.30-3.62L21.70-3.62L23.37-1.73L27.34-1.73C29.20-1.73 30.35-2.88 30.35-4.75L30.35-16.56C30.35-18.42 29.20-19.57 27.34-19.57ZM23.84 2.64C24.39 2.64 24.60 2.07 24.25 1.68L17.18-6.33C16.91-6.63 16.44-6.63 16.17-6.33L9.11 1.68C8.75 2.07 8.96 2.64 9.52 2.64Z" fill="currentColor"/>
</svg>