<svg xmlns="http://www.w3.org/2000/svg" viewBox="0 0 24 24" width="24" height="24">
  <title>dot.radiowaves.up.forward</title>
  <path transform="matrix(1.130242825607064, 0, 0, 1.130242825607064, -1.3774834437086092, 21.629139072847682)" d="M3.16-16.43C3.16-15.91 3.60-15.48 4.11-15.48C12.21-15.48 18.80-8.89 18.80-0.80C18.80-0.28 19.23 0.15 19.75 0.15C20.26 0.15 20.68-0.28 20.68-0.80C20.68-9.93 13.24-17.37 4.11-17.37C3.60-17.37 3.16-16.95 3.16-16.43ZM3.16-11.47C3.16-10.96 3.60-10.54 4.11-10.54C9.49-10.54 13.85-6.18 13.85-0.80C13.85-0.28 14.27 0.15 14.79 0.15C15.30 0.15 15.74-0.28 15.74-0.80C15.74-7.21 10.52-12.42 4.11-12.42C3.60-12.42 3.16-11.99 3.16-11.47ZM3.16-6.82C3.16-6.30 3.60-5.88 4.11-5.88C6.91-5.88 9.20-3.60 9.20-0.80C9.20-0.28 9.62 0.15 10.14 0.15C10.65 0.15 11.09-0.28 11.09-0.80C11.09-4.64 7.95-7.77 4.11-7.77C3.60-7.77 3.16-7.34 3.16-6.82ZM4.66 0.33C5.58 0.33 6.32-0.42 6.32-1.32C6.32-2.25 5.59-2.99 4.66-2.99C3.75-2.99 2.99-2.21 2.99-1.29C2.99-0.42 3.77 0.33 4.66 0.33Z" fill="currentColor"/>
</svg>