<svg xmlns="http://www.w3.org/2000/svg" viewBox="0 0 24 24" width="24" height="24">
  <title>forward.fill</title>
  <path transform="matrix(0.6281437860385228, 0, 0, 0.6281437860385228, 0.12292970187707053, 17.314685314685313)" d="M2.99-1.14C2.99-0.04 3.63 0.49 4.38 0.49C4.72 0.49 5.06 0.39 5.40 0.20L17.72-6.97C18.39-7.37 18.75-7.69 18.88-8.07L18.88-1.14C18.88-0.04 19.51 0.49 20.27 0.49C20.60 0.49 20.95 0.39 21.29 0.20L33.60-6.97C34.49-7.49 34.83-7.88 34.83-8.46C34.83-9.05 34.49-9.43 33.60-9.95L21.29-17.12C20.95-17.32 20.60-17.41 20.27-17.41C19.51-17.41 18.88-16.90 18.88-15.80L18.88-8.85C18.75-9.25 18.39-9.56 17.72-9.95L5.40-17.12C5.06-17.32 4.72-17.41 4.38-17.41C3.63-17.41 2.99-16.90 2.99-15.80Z" fill="currentColor"/>
</svg>