<svg xmlns="http://www.w3.org/2000/svg" viewBox="0 0 24 24" width="24" height="24">
  <title>rays</title>
  <path transform="matrix(0.7861200675571933, 0, 0, 0.7861200675571933, 0.3509903270382313, 18.655918931368035)" d="M14.81-15.52C15.38-15.52 15.84-15.98 15.84-16.55L15.84-20.16C15.84-20.72 15.38-21.19 14.81-21.19C14.26-21.19 13.79-20.72 13.79-20.16L13.79-16.55C13.79-15.98 14.26-15.52 14.81-15.52ZM19.80-13.45C20.19-13.05 20.87-13.05 21.26-13.45L23.81-16.01C24.20-16.41 24.20-17.06 23.81-17.45C23.41-17.85 22.76-17.85 22.37-17.45L19.80-14.91C19.42-14.51 19.42-13.84 19.80-13.45ZM9.83-13.45C10.22-13.84 10.22-14.51 9.83-14.91L7.27-17.45C6.88-17.85 6.22-17.85 5.82-17.45C5.44-17.06 5.44-16.41 5.82-16.01L8.38-13.45C8.77-13.05 9.45-13.05 9.83-13.45ZM21.88-8.46C21.88-7.91 22.35-7.44 22.90-7.44L26.51-7.44C27.07-7.44 27.54-7.91 27.54-8.46C27.54-9.01 27.07-9.48 26.51-9.48L22.90-9.48C22.35-9.48 21.88-9.01 21.88-8.46ZM7.76-8.46C7.76-9.01 7.29-9.48 6.74-9.48L3.12-9.48C2.57-9.48 2.10-9.01 2.10-8.46C2.10-7.91 2.57-7.44 3.12-7.44L6.74-7.44C7.29-7.44 7.76-7.91 7.76-8.46ZM19.80-3.48C19.42-3.08 19.42-2.41 19.80-2.03L22.37 0.53C22.76 0.91 23.41 0.91 23.81 0.53C24.20 0.14 24.20-0.53 23.81-0.91L21.26-3.48C20.87-3.87 20.19-3.87 19.80-3.48ZM9.83-3.48C9.45-3.87 8.77-3.87 8.38-3.48L5.82-0.91C5.44-0.53 5.44 0.14 5.82 0.53C6.22 0.91 6.88 0.91 7.27 0.53L9.83-2.03C10.22-2.41 10.22-3.08 9.83-3.48ZM14.81-1.41C14.26-1.41 13.79-0.94 13.79-0.39L13.79 3.23C13.79 3.79 14.26 4.25 14.81 4.25C15.38 4.25 15.84 3.79 15.84 3.23L15.84-0.39C15.84-0.94 15.38-1.41 14.81-1.41Z" fill="currentColor"/>
</svg>