<svg xmlns="http://www.w3.org/2000/svg" viewBox="0 0 24 24" width="24" height="24">
  <title>pause.fill</title>
  <path transform="matrix(1.0318419991938734, 0, 0, 1.0318419991938734, 1.5405078597339785, 20.730350665054413)" d="M4.55 1.23L7.22 1.23C8.24 1.23 8.78 0.69 8.78-0.34L8.78-16.59C8.78-17.67 8.24-18.15 7.22-18.15L4.55-18.15C3.53-18.15 2.99-17.63 2.99-16.59L2.99-0.34C2.99 0.69 3.53 1.23 4.55 1.23ZM13.07 1.23L15.73 1.23C16.76 1.23 17.29 0.69 17.29-0.34L17.29-16.59C17.29-17.67 16.76-18.15 15.73-18.15L13.07-18.15C12.04-18.15 11.50-17.63 11.50-16.59L11.50-0.34C11.50 0.69 12.04 1.23 13.07 1.23Z" fill="currentColor"/>
</svg>