<svg xmlns="http://www.w3.org/2000/svg" viewBox="0 0 24 24" width="24" height="24">
  <title>speaker.wave.2.fill</title>
  <path transform="matrix(0.7646356033452808, 0, 0, 0.7646356033452808, -0.7329749103942653, 18.46057347670251)" d="M16.21 1.89C16.98 1.89 17.53 1.34 17.53 0.57L17.53-17.40C17.53-18.16 16.98-18.79 16.18-18.79C15.63-18.79 15.27-18.54 14.67-17.98L9.67-13.29C9.60-13.22 9.49-13.18 9.38-13.18L6.02-13.18C4.43-13.18 3.57-12.30 3.57-10.62L3.57-6.26C3.57-4.56 4.43-3.69 6.02-3.69L9.38-3.69C9.49-3.69 9.60-3.66 9.67-3.59L14.67 1.15C15.20 1.66 15.66 1.89 16.21 1.89ZM26.06-0.41C26.50-0.12 27.04-0.22 27.35-0.67C28.85-2.73 29.73-5.57 29.73-8.46C29.73-11.36 28.86-14.21 27.35-16.25C27.04-16.70 26.50-16.80 26.06-16.51C25.63-16.22 25.56-15.67 25.90-15.19C27.18-13.38 27.91-10.96 27.91-8.46C27.91-5.96 27.15-3.56 25.90-1.73C25.57-1.25 25.63-0.70 26.06-0.41ZM21.73-3.47C22.11-3.20 22.66-3.28 22.98-3.74C23.88-4.92 24.42-6.67 24.42-8.46C24.42-10.25 23.88-11.99 22.98-13.18C22.66-13.64 22.11-13.73 21.73-13.45C21.25-13.13 21.18-12.54 21.54-12.06C22.22-11.12 22.61-9.82 22.61-8.46C22.61-7.10 22.21-5.81 21.54-4.86C21.19-4.37 21.25-3.81 21.73-3.47Z" fill="currentColor"/>
</svg>